<mxfile host="app.diagrams.net" agent="Mozilla/5.0 (Macintosh; Intel Mac OS X 10_15_7) AppleWebKit/537.36 (KHTML, like Gecko) Chrome/138.0.0.0 Safari/537.36" version="28.0.7">
  <diagram id="mBUOXaVF1mbaWTDL2LFQ" name="Страница — 1">
    <mxGraphModel dx="3007" dy="1953" grid="1" gridSize="10" guides="1" tooltips="1" connect="1" arrows="1" fold="1" page="1" pageScale="1" pageWidth="827" pageHeight="1169" math="0" shadow="0">
      <root>
        <mxCell id="0" />
        <mxCell id="1" parent="0" />
        <mxCell id="amxVWLV9TotgzXEuRiM_-1" value="" style="swimlane;html=1;startSize=20;fontStyle=0;collapsible=0;horizontal=1;swimlaneLine=0;fillColor=none;whiteSpace=wrap;" vertex="1" parent="1">
          <mxGeometry x="280" y="420" width="2440" height="530" as="geometry" />
        </mxCell>
        <mxCell id="amxVWLV9TotgzXEuRiM_-2" value="Пользователь" style="swimlane;html=1;startSize=20;fontStyle=0;collapsible=0;horizontal=0;swimlaneLine=1;swimlaneFillColor=#ffffff;strokeWidth=2;whiteSpace=wrap;" vertex="1" parent="amxVWLV9TotgzXEuRiM_-1">
          <mxGeometry width="2440" height="170" as="geometry" />
        </mxCell>
        <mxCell id="amxVWLV9TotgzXEuRiM_-6" value="/Start" style="points=[[0.145,0.145,0],[0.5,0,0],[0.855,0.145,0],[1,0.5,0],[0.855,0.855,0],[0.5,1,0],[0.145,0.855,0],[0,0.5,0]];shape=mxgraph.bpmn.event;html=1;verticalLabelPosition=bottom;labelBackgroundColor=#ffffff;verticalAlign=top;align=center;perimeter=ellipsePerimeter;outlineConnect=0;aspect=fixed;outline=standard;symbol=general;" vertex="1" parent="amxVWLV9TotgzXEuRiM_-2">
          <mxGeometry x="60" y="100" width="30" height="30" as="geometry" />
        </mxCell>
        <mxCell id="amxVWLV9TotgzXEuRiM_-7" value="Ввод название позиции" style="points=[[0.25,0,0],[0.5,0,0],[0.75,0,0],[1,0.25,0],[1,0.5,0],[1,0.75,0],[0.75,1,0],[0.5,1,0],[0.25,1,0],[0,0.75,0],[0,0.5,0],[0,0.25,0]];shape=mxgraph.bpmn.task2;whiteSpace=wrap;rectStyle=rounded;size=10;html=1;container=1;expand=0;collapsible=0;taskMarker=abstract;" vertex="1" parent="amxVWLV9TotgzXEuRiM_-2">
          <mxGeometry x="160" y="90" width="100" height="50" as="geometry" />
        </mxCell>
        <mxCell id="amxVWLV9TotgzXEuRiM_-23" value="Прикрепить резюме?" style="points=[[0.25,0,0],[0.5,0,0],[0.75,0,0],[1,0.25,0],[1,0.5,0],[1,0.75,0],[0.75,1,0],[0.5,1,0],[0.25,1,0],[0,0.75,0],[0,0.5,0],[0,0.25,0]];shape=mxgraph.bpmn.task2;whiteSpace=wrap;rectStyle=rounded;size=10;html=1;container=1;expand=0;collapsible=0;taskMarker=abstract;" vertex="1" parent="amxVWLV9TotgzXEuRiM_-2">
          <mxGeometry x="1180" y="70" width="100" height="50" as="geometry" />
        </mxCell>
        <mxCell id="amxVWLV9TotgzXEuRiM_-29" value="Получение сформированного отчета о требованиях&amp;nbsp;" style="points=[[0.25,0,0],[0.5,0,0],[0.75,0,0],[1,0.25,0],[1,0.5,0],[1,0.75,0],[0.75,1,0],[0.5,1,0],[0.25,1,0],[0,0.75,0],[0,0.5,0],[0,0.25,0]];shape=mxgraph.bpmn.task2;whiteSpace=wrap;rectStyle=rounded;size=10;html=1;container=1;expand=0;collapsible=0;taskMarker=receive;" vertex="1" parent="amxVWLV9TotgzXEuRiM_-2">
          <mxGeometry x="887.5" y="60" width="135" height="70" as="geometry" />
        </mxCell>
        <mxCell id="amxVWLV9TotgzXEuRiM_-34" value="" style="points=[[0.25,0.25,0],[0.5,0,0],[0.75,0.25,0],[1,0.5,0],[0.75,0.75,0],[0.5,1,0],[0.25,0.75,0],[0,0.5,0]];shape=mxgraph.bpmn.gateway2;html=1;verticalLabelPosition=bottom;labelBackgroundColor=#ffffff;verticalAlign=top;align=center;perimeter=rhombusPerimeter;outlineConnect=0;outline=none;symbol=none;gwType=exclusive;" vertex="1" parent="amxVWLV9TotgzXEuRiM_-2">
          <mxGeometry x="1350" y="70" width="50" height="50" as="geometry" />
        </mxCell>
        <mxCell id="amxVWLV9TotgzXEuRiM_-36" style="edgeStyle=orthogonalEdgeStyle;rounded=0;orthogonalLoop=1;jettySize=auto;html=1;exitX=1;exitY=0.5;exitDx=0;exitDy=0;exitPerimeter=0;entryX=0;entryY=0.5;entryDx=0;entryDy=0;entryPerimeter=0;" edge="1" parent="amxVWLV9TotgzXEuRiM_-2" source="amxVWLV9TotgzXEuRiM_-23" target="amxVWLV9TotgzXEuRiM_-34">
          <mxGeometry relative="1" as="geometry" />
        </mxCell>
        <mxCell id="amxVWLV9TotgzXEuRiM_-37" value="Прикрепление резюме" style="points=[[0.25,0,0],[0.5,0,0],[0.75,0,0],[1,0.25,0],[1,0.5,0],[1,0.75,0],[0.75,1,0],[0.5,1,0],[0.25,1,0],[0,0.75,0],[0,0.5,0],[0,0.25,0]];shape=mxgraph.bpmn.task2;whiteSpace=wrap;rectStyle=rounded;size=10;html=1;container=1;expand=0;collapsible=0;taskMarker=abstract;" vertex="1" parent="amxVWLV9TotgzXEuRiM_-2">
          <mxGeometry x="1660" y="70" width="100" height="50" as="geometry" />
        </mxCell>
        <mxCell id="amxVWLV9TotgzXEuRiM_-77" style="edgeStyle=orthogonalEdgeStyle;rounded=0;orthogonalLoop=1;jettySize=auto;html=1;exitX=1;exitY=0.5;exitDx=0;exitDy=0;exitPerimeter=0;" edge="1" parent="amxVWLV9TotgzXEuRiM_-2" source="amxVWLV9TotgzXEuRiM_-62" target="amxVWLV9TotgzXEuRiM_-76">
          <mxGeometry relative="1" as="geometry" />
        </mxCell>
        <mxCell id="amxVWLV9TotgzXEuRiM_-62" value="Получение рекомендаций и плана обучения&amp;nbsp;" style="points=[[0.25,0,0],[0.5,0,0],[0.75,0,0],[1,0.25,0],[1,0.5,0],[1,0.75,0],[0.75,1,0],[0.5,1,0],[0.25,1,0],[0,0.75,0],[0,0.5,0],[0,0.25,0]];shape=mxgraph.bpmn.task2;whiteSpace=wrap;rectStyle=rounded;size=10;html=1;container=1;expand=0;collapsible=0;taskMarker=receive;" vertex="1" parent="amxVWLV9TotgzXEuRiM_-2">
          <mxGeometry x="2132.5" y="70" width="135" height="70" as="geometry" />
        </mxCell>
        <mxCell id="amxVWLV9TotgzXEuRiM_-76" value="Конец" style="points=[[0.145,0.145,0],[0.5,0,0],[0.855,0.145,0],[1,0.5,0],[0.855,0.855,0],[0.5,1,0],[0.145,0.855,0],[0,0.5,0]];shape=mxgraph.bpmn.event;html=1;verticalLabelPosition=bottom;labelBackgroundColor=#ffffff;verticalAlign=top;align=center;perimeter=ellipsePerimeter;outlineConnect=0;aspect=fixed;outline=end;symbol=terminate2;" vertex="1" parent="amxVWLV9TotgzXEuRiM_-2">
          <mxGeometry x="2360" y="80" width="50" height="50" as="geometry" />
        </mxCell>
        <mxCell id="amxVWLV9TotgzXEuRiM_-3" value="Телеграмм-бот" style="swimlane;html=1;startSize=20;fontStyle=0;collapsible=0;horizontal=0;swimlaneLine=1;swimlaneFillColor=#ffffff;strokeWidth=2;whiteSpace=wrap;" vertex="1" parent="amxVWLV9TotgzXEuRiM_-1">
          <mxGeometry y="170" width="2440" height="220" as="geometry" />
        </mxCell>
        <mxCell id="amxVWLV9TotgzXEuRiM_-9" value="Инициализация команды&amp;nbsp;" style="points=[[0.25,0,0],[0.5,0,0],[0.75,0,0],[1,0.25,0],[1,0.5,0],[1,0.75,0],[0.75,1,0],[0.5,1,0],[0.25,1,0],[0,0.75,0],[0,0.5,0],[0,0.25,0]];shape=mxgraph.bpmn.task2;whiteSpace=wrap;rectStyle=rounded;size=10;html=1;container=1;expand=0;collapsible=0;taskMarker=service;" vertex="1" parent="amxVWLV9TotgzXEuRiM_-3">
          <mxGeometry x="30" y="70" width="90" height="50" as="geometry" />
        </mxCell>
        <mxCell id="amxVWLV9TotgzXEuRiM_-12" value="Отправка сообщения приветствия" style="points=[[0.25,0,0],[0.5,0,0],[0.75,0,0],[1,0.25,0],[1,0.5,0],[1,0.75,0],[0.75,1,0],[0.5,1,0],[0.25,1,0],[0,0.75,0],[0,0.5,0],[0,0.25,0]];shape=mxgraph.bpmn.task2;whiteSpace=wrap;rectStyle=rounded;size=10;html=1;container=1;expand=0;collapsible=0;taskMarker=abstract;" vertex="1" parent="amxVWLV9TotgzXEuRiM_-3">
          <mxGeometry x="160" y="70" width="100" height="50" as="geometry" />
        </mxCell>
        <mxCell id="amxVWLV9TotgzXEuRiM_-13" style="edgeStyle=orthogonalEdgeStyle;rounded=0;orthogonalLoop=1;jettySize=auto;html=1;exitX=1;exitY=0.5;exitDx=0;exitDy=0;exitPerimeter=0;entryX=0;entryY=0.5;entryDx=0;entryDy=0;entryPerimeter=0;" edge="1" parent="amxVWLV9TotgzXEuRiM_-3" source="amxVWLV9TotgzXEuRiM_-9" target="amxVWLV9TotgzXEuRiM_-12">
          <mxGeometry relative="1" as="geometry" />
        </mxCell>
        <mxCell id="amxVWLV9TotgzXEuRiM_-18" value="Запрос к AI" style="points=[[0.25,0,0],[0.5,0,0],[0.75,0,0],[1,0.25,0],[1,0.5,0],[1,0.75,0],[0.75,1,0],[0.5,1,0],[0.25,1,0],[0,0.75,0],[0,0.5,0],[0,0.25,0]];shape=mxgraph.bpmn.task2;whiteSpace=wrap;rectStyle=rounded;size=10;html=1;container=1;expand=0;collapsible=0;taskMarker=service;" vertex="1" parent="amxVWLV9TotgzXEuRiM_-3">
          <mxGeometry x="350" y="70" width="90" height="50" as="geometry" />
        </mxCell>
        <mxCell id="amxVWLV9TotgzXEuRiM_-25" value="Формирования сообщения&amp;nbsp;" style="points=[[0.25,0,0],[0.5,0,0],[0.75,0,0],[1,0.25,0],[1,0.5,0],[1,0.75,0],[0.75,1,0],[0.5,1,0],[0.25,1,0],[0,0.75,0],[0,0.5,0],[0,0.25,0]];shape=mxgraph.bpmn.task2;whiteSpace=wrap;rectStyle=rounded;size=10;html=1;container=1;expand=0;collapsible=0;taskMarker=abstract;" vertex="1" parent="amxVWLV9TotgzXEuRiM_-3">
          <mxGeometry x="630" y="80" width="100" height="50" as="geometry" />
        </mxCell>
        <mxCell id="amxVWLV9TotgzXEuRiM_-27" value="Отправка сообщения&amp;nbsp;" style="points=[[0.25,0,0],[0.5,0,0],[0.75,0,0],[1,0.25,0],[1,0.5,0],[1,0.75,0],[0.75,1,0],[0.5,1,0],[0.25,1,0],[0,0.75,0],[0,0.5,0],[0,0.25,0]];shape=mxgraph.bpmn.task2;whiteSpace=wrap;rectStyle=rounded;size=10;html=1;container=1;expand=0;collapsible=0;taskMarker=send;" vertex="1" parent="amxVWLV9TotgzXEuRiM_-3">
          <mxGeometry x="770" y="80" width="100" height="50" as="geometry" />
        </mxCell>
        <mxCell id="amxVWLV9TotgzXEuRiM_-28" style="edgeStyle=orthogonalEdgeStyle;rounded=0;orthogonalLoop=1;jettySize=auto;html=1;exitX=1;exitY=0.5;exitDx=0;exitDy=0;exitPerimeter=0;entryX=0;entryY=0.5;entryDx=0;entryDy=0;entryPerimeter=0;" edge="1" parent="amxVWLV9TotgzXEuRiM_-3" source="amxVWLV9TotgzXEuRiM_-25" target="amxVWLV9TotgzXEuRiM_-27">
          <mxGeometry relative="1" as="geometry" />
        </mxCell>
        <mxCell id="amxVWLV9TotgzXEuRiM_-33" style="edgeStyle=orthogonalEdgeStyle;rounded=0;orthogonalLoop=1;jettySize=auto;html=1;exitX=1;exitY=0.5;exitDx=0;exitDy=0;exitPerimeter=0;" edge="1" parent="amxVWLV9TotgzXEuRiM_-3" source="amxVWLV9TotgzXEuRiM_-31" target="amxVWLV9TotgzXEuRiM_-24">
          <mxGeometry relative="1" as="geometry" />
        </mxCell>
        <mxCell id="amxVWLV9TotgzXEuRiM_-31" value="" style="points=[[0.25,0.25,0],[0.5,0,0],[0.75,0.25,0],[1,0.5,0],[0.75,0.75,0],[0.5,1,0],[0.25,0.75,0],[0,0.5,0]];shape=mxgraph.bpmn.gateway2;html=1;verticalLabelPosition=bottom;labelBackgroundColor=#ffffff;verticalAlign=top;align=center;perimeter=rhombusPerimeter;outlineConnect=0;outline=none;symbol=none;gwType=parallel;" vertex="1" parent="amxVWLV9TotgzXEuRiM_-3">
          <mxGeometry x="930" y="80" width="50" height="50" as="geometry" />
        </mxCell>
        <mxCell id="amxVWLV9TotgzXEuRiM_-30" style="edgeStyle=orthogonalEdgeStyle;rounded=0;orthogonalLoop=1;jettySize=auto;html=1;exitX=1;exitY=0.5;exitDx=0;exitDy=0;exitPerimeter=0;entryX=0;entryY=0.5;entryDx=0;entryDy=0;entryPerimeter=0;" edge="1" parent="amxVWLV9TotgzXEuRiM_-3" source="amxVWLV9TotgzXEuRiM_-27" target="amxVWLV9TotgzXEuRiM_-31">
          <mxGeometry relative="1" as="geometry" />
        </mxCell>
        <mxCell id="amxVWLV9TotgzXEuRiM_-24" value="Запрос на отправку резюме" style="points=[[0.25,0,0],[0.5,0,0],[0.75,0,0],[1,0.25,0],[1,0.5,0],[1,0.75,0],[0.75,1,0],[0.5,1,0],[0.25,1,0],[0,0.75,0],[0,0.5,0],[0,0.25,0]];shape=mxgraph.bpmn.task2;whiteSpace=wrap;rectStyle=rounded;size=10;html=1;container=1;expand=0;collapsible=0;taskMarker=abstract;" vertex="1" parent="amxVWLV9TotgzXEuRiM_-3">
          <mxGeometry x="1020" y="80" width="100" height="50" as="geometry" />
        </mxCell>
        <mxCell id="amxVWLV9TotgzXEuRiM_-16" value="Ожидание резюме&amp;nbsp;" style="points=[[0.25,0,0],[0.5,0,0],[0.75,0,0],[1,0.25,0],[1,0.5,0],[1,0.75,0],[0.75,1,0],[0.5,1,0],[0.25,1,0],[0,0.75,0],[0,0.5,0],[0,0.25,0]];shape=mxgraph.bpmn.task2;whiteSpace=wrap;rectStyle=rounded;size=10;html=1;container=1;expand=0;collapsible=0;taskMarker=service;" vertex="1" parent="amxVWLV9TotgzXEuRiM_-3">
          <mxGeometry x="1510" y="80" width="90" height="50" as="geometry" />
        </mxCell>
        <mxCell id="amxVWLV9TotgzXEuRiM_-43" value="Обработка резюме&amp;nbsp;" style="points=[[0.25,0,0],[0.5,0,0],[0.75,0,0],[1,0.25,0],[1,0.5,0],[1,0.75,0],[0.75,1,0],[0.5,1,0],[0.25,1,0],[0,0.75,0],[0,0.5,0],[0,0.25,0]];shape=mxgraph.bpmn.task2;whiteSpace=wrap;rectStyle=rounded;size=10;html=1;container=1;expand=0;collapsible=0;taskMarker=service;" vertex="1" parent="amxVWLV9TotgzXEuRiM_-3">
          <mxGeometry x="1850" y="80" width="90" height="50" as="geometry" />
        </mxCell>
        <mxCell id="amxVWLV9TotgzXEuRiM_-53" value="Отправка сообщение" style="points=[[0.25,0,0],[0.5,0,0],[0.75,0,0],[1,0.25,0],[1,0.5,0],[1,0.75,0],[0.75,1,0],[0.5,1,0],[0.25,1,0],[0,0.75,0],[0,0.5,0],[0,0.25,0]];shape=mxgraph.bpmn.task2;whiteSpace=wrap;rectStyle=rounded;size=10;html=1;container=1;expand=0;collapsible=0;taskMarker=send;" vertex="1" parent="amxVWLV9TotgzXEuRiM_-3">
          <mxGeometry x="2150" y="65" width="100" height="55" as="geometry" />
        </mxCell>
        <mxCell id="amxVWLV9TotgzXEuRiM_-78" value="Ожидание ввода позиции" style="points=[[0.25,0,0],[0.5,0,0],[0.75,0,0],[1,0.25,0],[1,0.5,0],[1,0.75,0],[0.75,1,0],[0.5,1,0],[0.25,1,0],[0,0.75,0],[0,0.5,0],[0,0.25,0]];shape=mxgraph.bpmn.task2;whiteSpace=wrap;rectStyle=rounded;size=10;html=1;container=1;expand=0;collapsible=0;taskMarker=abstract;isLoopStandard=1;" vertex="1" parent="amxVWLV9TotgzXEuRiM_-3">
          <mxGeometry x="1322.5" y="80" width="105" height="50" as="geometry" />
        </mxCell>
        <mxCell id="amxVWLV9TotgzXEuRiM_-4" value="AI-агент" style="swimlane;html=1;startSize=20;fontStyle=0;collapsible=0;horizontal=0;swimlaneLine=1;swimlaneFillColor=#ffffff;strokeWidth=2;whiteSpace=wrap;" vertex="1" parent="amxVWLV9TotgzXEuRiM_-1">
          <mxGeometry y="390" width="2440" height="140" as="geometry" />
        </mxCell>
        <mxCell id="amxVWLV9TotgzXEuRiM_-17" value="Парсинг требований с запрашиваемой позиции&amp;nbsp;" style="points=[[0.25,0,0],[0.5,0,0],[0.75,0,0],[1,0.25,0],[1,0.5,0],[1,0.75,0],[0.75,1,0],[0.5,1,0],[0.25,1,0],[0,0.75,0],[0,0.5,0],[0,0.25,0]];shape=mxgraph.bpmn.task2;whiteSpace=wrap;rectStyle=rounded;size=10;html=1;container=1;expand=0;collapsible=0;taskMarker=service;" vertex="1" parent="amxVWLV9TotgzXEuRiM_-4">
          <mxGeometry x="350" y="30" width="90" height="70" as="geometry" />
        </mxCell>
        <mxCell id="amxVWLV9TotgzXEuRiM_-15" value="Составление отчета собранных требований" style="points=[[0.25,0,0],[0.5,0,0],[0.75,0,0],[1,0.25,0],[1,0.5,0],[1,0.75,0],[0.75,1,0],[0.5,1,0],[0.25,1,0],[0,0.75,0],[0,0.5,0],[0,0.25,0]];shape=mxgraph.bpmn.task2;whiteSpace=wrap;rectStyle=rounded;size=10;html=1;container=1;expand=0;collapsible=0;taskMarker=abstract;" vertex="1" parent="amxVWLV9TotgzXEuRiM_-4">
          <mxGeometry x="490" y="35" width="100" height="60" as="geometry" />
        </mxCell>
        <mxCell id="amxVWLV9TotgzXEuRiM_-21" style="edgeStyle=orthogonalEdgeStyle;rounded=0;orthogonalLoop=1;jettySize=auto;html=1;exitX=1;exitY=0.5;exitDx=0;exitDy=0;exitPerimeter=0;entryX=0;entryY=0.5;entryDx=0;entryDy=0;entryPerimeter=0;" edge="1" parent="amxVWLV9TotgzXEuRiM_-4" source="amxVWLV9TotgzXEuRiM_-17" target="amxVWLV9TotgzXEuRiM_-15">
          <mxGeometry relative="1" as="geometry" />
        </mxCell>
        <mxCell id="amxVWLV9TotgzXEuRiM_-22" value="Анализ резюме&amp;nbsp;" style="points=[[0.25,0,0],[0.5,0,0],[0.75,0,0],[1,0.25,0],[1,0.5,0],[1,0.75,0],[0.75,1,0],[0.5,1,0],[0.25,1,0],[0,0.75,0],[0,0.5,0],[0,0.25,0]];shape=mxgraph.bpmn.task2;whiteSpace=wrap;rectStyle=rounded;size=10;html=1;container=1;expand=0;collapsible=0;taskMarker=abstract;" vertex="1" parent="amxVWLV9TotgzXEuRiM_-4">
          <mxGeometry x="1845" y="40" width="100" height="50" as="geometry" />
        </mxCell>
        <mxCell id="amxVWLV9TotgzXEuRiM_-46" value="Сравнение с требованиями" style="points=[[0.25,0,0],[0.5,0,0],[0.75,0,0],[1,0.25,0],[1,0.5,0],[1,0.75,0],[0.75,1,0],[0.5,1,0],[0.25,1,0],[0,0.75,0],[0,0.5,0],[0,0.25,0]];shape=mxgraph.bpmn.task2;whiteSpace=wrap;rectStyle=rounded;size=10;html=1;container=1;expand=0;collapsible=0;taskMarker=abstract;" vertex="1" parent="amxVWLV9TotgzXEuRiM_-4">
          <mxGeometry x="1990" y="40" width="100" height="50" as="geometry" />
        </mxCell>
        <mxCell id="amxVWLV9TotgzXEuRiM_-47" style="edgeStyle=orthogonalEdgeStyle;rounded=0;orthogonalLoop=1;jettySize=auto;html=1;exitX=1;exitY=0.5;exitDx=0;exitDy=0;exitPerimeter=0;entryX=0;entryY=0.5;entryDx=0;entryDy=0;entryPerimeter=0;" edge="1" parent="amxVWLV9TotgzXEuRiM_-4" source="amxVWLV9TotgzXEuRiM_-22" target="amxVWLV9TotgzXEuRiM_-46">
          <mxGeometry relative="1" as="geometry" />
        </mxCell>
        <mxCell id="amxVWLV9TotgzXEuRiM_-48" value="Формирование рекомендаций обучения" style="points=[[0.25,0,0],[0.5,0,0],[0.75,0,0],[1,0.25,0],[1,0.5,0],[1,0.75,0],[0.75,1,0],[0.5,1,0],[0.25,1,0],[0,0.75,0],[0,0.5,0],[0,0.25,0]];shape=mxgraph.bpmn.task2;whiteSpace=wrap;rectStyle=rounded;size=10;html=1;container=1;expand=0;collapsible=0;taskMarker=abstract;" vertex="1" parent="amxVWLV9TotgzXEuRiM_-4">
          <mxGeometry x="2150" y="40" width="100" height="50" as="geometry" />
        </mxCell>
        <mxCell id="amxVWLV9TotgzXEuRiM_-49" style="edgeStyle=orthogonalEdgeStyle;rounded=0;orthogonalLoop=1;jettySize=auto;html=1;exitX=1;exitY=0.5;exitDx=0;exitDy=0;exitPerimeter=0;entryX=0;entryY=0.5;entryDx=0;entryDy=0;entryPerimeter=0;" edge="1" parent="amxVWLV9TotgzXEuRiM_-4" source="amxVWLV9TotgzXEuRiM_-46" target="amxVWLV9TotgzXEuRiM_-48">
          <mxGeometry relative="1" as="geometry" />
        </mxCell>
        <mxCell id="amxVWLV9TotgzXEuRiM_-10" style="edgeStyle=orthogonalEdgeStyle;rounded=0;orthogonalLoop=1;jettySize=auto;html=1;exitX=0.5;exitY=1;exitDx=0;exitDy=0;exitPerimeter=0;entryX=0.5;entryY=0;entryDx=0;entryDy=0;entryPerimeter=0;" edge="1" parent="amxVWLV9TotgzXEuRiM_-1" source="amxVWLV9TotgzXEuRiM_-6" target="amxVWLV9TotgzXEuRiM_-9">
          <mxGeometry relative="1" as="geometry" />
        </mxCell>
        <mxCell id="amxVWLV9TotgzXEuRiM_-19" style="edgeStyle=orthogonalEdgeStyle;rounded=0;orthogonalLoop=1;jettySize=auto;html=1;exitX=1;exitY=0.5;exitDx=0;exitDy=0;exitPerimeter=0;entryX=0;entryY=0.5;entryDx=0;entryDy=0;entryPerimeter=0;" edge="1" parent="amxVWLV9TotgzXEuRiM_-1" source="amxVWLV9TotgzXEuRiM_-7" target="amxVWLV9TotgzXEuRiM_-18">
          <mxGeometry relative="1" as="geometry" />
        </mxCell>
        <mxCell id="amxVWLV9TotgzXEuRiM_-35" style="edgeStyle=orthogonalEdgeStyle;rounded=0;orthogonalLoop=1;jettySize=auto;html=1;exitX=1;exitY=0.5;exitDx=0;exitDy=0;exitPerimeter=0;entryX=0;entryY=0.5;entryDx=0;entryDy=0;entryPerimeter=0;" edge="1" parent="amxVWLV9TotgzXEuRiM_-1" source="amxVWLV9TotgzXEuRiM_-24" target="amxVWLV9TotgzXEuRiM_-23">
          <mxGeometry relative="1" as="geometry">
            <mxPoint x="1390" y="130" as="targetPoint" />
          </mxGeometry>
        </mxCell>
        <mxCell id="amxVWLV9TotgzXEuRiM_-40" value="НЕТ" style="edgeStyle=orthogonalEdgeStyle;rounded=0;orthogonalLoop=1;jettySize=auto;html=1;exitX=0.5;exitY=1;exitDx=0;exitDy=0;exitPerimeter=0;entryX=0.5;entryY=0;entryDx=0;entryDy=0;entryPerimeter=0;" edge="1" parent="amxVWLV9TotgzXEuRiM_-1" source="amxVWLV9TotgzXEuRiM_-34" target="amxVWLV9TotgzXEuRiM_-78">
          <mxGeometry relative="1" as="geometry">
            <mxPoint x="1485" y="320" as="targetPoint" />
          </mxGeometry>
        </mxCell>
        <mxCell id="amxVWLV9TotgzXEuRiM_-39" style="edgeStyle=orthogonalEdgeStyle;rounded=0;orthogonalLoop=1;jettySize=auto;html=1;exitX=1;exitY=0.5;exitDx=0;exitDy=0;exitPerimeter=0;entryX=0.5;entryY=0;entryDx=0;entryDy=0;entryPerimeter=0;" edge="1" parent="amxVWLV9TotgzXEuRiM_-1" source="amxVWLV9TotgzXEuRiM_-34" target="amxVWLV9TotgzXEuRiM_-16">
          <mxGeometry relative="1" as="geometry">
            <mxPoint x="1750" y="330" as="targetPoint" />
          </mxGeometry>
        </mxCell>
        <mxCell id="amxVWLV9TotgzXEuRiM_-41" value="ДА" style="edgeLabel;html=1;align=center;verticalAlign=middle;resizable=0;points=[];" vertex="1" connectable="0" parent="amxVWLV9TotgzXEuRiM_-39">
          <mxGeometry x="-0.0417" y="-1" relative="1" as="geometry">
            <mxPoint as="offset" />
          </mxGeometry>
        </mxCell>
        <mxCell id="amxVWLV9TotgzXEuRiM_-42" style="edgeStyle=orthogonalEdgeStyle;rounded=0;orthogonalLoop=1;jettySize=auto;html=1;exitX=1;exitY=0.5;exitDx=0;exitDy=0;exitPerimeter=0;entryX=0;entryY=0.5;entryDx=0;entryDy=0;entryPerimeter=0;" edge="1" parent="amxVWLV9TotgzXEuRiM_-1" source="amxVWLV9TotgzXEuRiM_-16" target="amxVWLV9TotgzXEuRiM_-37">
          <mxGeometry relative="1" as="geometry" />
        </mxCell>
        <mxCell id="amxVWLV9TotgzXEuRiM_-44" style="edgeStyle=orthogonalEdgeStyle;rounded=0;orthogonalLoop=1;jettySize=auto;html=1;exitX=1;exitY=0.5;exitDx=0;exitDy=0;exitPerimeter=0;entryX=0;entryY=0.5;entryDx=0;entryDy=0;entryPerimeter=0;" edge="1" parent="amxVWLV9TotgzXEuRiM_-1" source="amxVWLV9TotgzXEuRiM_-37" target="amxVWLV9TotgzXEuRiM_-43">
          <mxGeometry relative="1" as="geometry" />
        </mxCell>
        <mxCell id="amxVWLV9TotgzXEuRiM_-52" style="edgeStyle=orthogonalEdgeStyle;rounded=0;orthogonalLoop=1;jettySize=auto;html=1;exitX=0.5;exitY=0;exitDx=0;exitDy=0;exitPerimeter=0;entryX=0.5;entryY=1;entryDx=0;entryDy=0;entryPerimeter=0;" edge="1" parent="amxVWLV9TotgzXEuRiM_-1" source="amxVWLV9TotgzXEuRiM_-48" target="amxVWLV9TotgzXEuRiM_-53">
          <mxGeometry relative="1" as="geometry">
            <mxPoint x="2530" y="400" as="targetPoint" />
          </mxGeometry>
        </mxCell>
        <mxCell id="amxVWLV9TotgzXEuRiM_-63" style="edgeStyle=orthogonalEdgeStyle;rounded=0;orthogonalLoop=1;jettySize=auto;html=1;exitX=0.5;exitY=0;exitDx=0;exitDy=0;exitPerimeter=0;entryX=0.5;entryY=1;entryDx=0;entryDy=0;entryPerimeter=0;" edge="1" parent="amxVWLV9TotgzXEuRiM_-1" source="amxVWLV9TotgzXEuRiM_-53" target="amxVWLV9TotgzXEuRiM_-62">
          <mxGeometry relative="1" as="geometry" />
        </mxCell>
        <mxCell id="amxVWLV9TotgzXEuRiM_-65" style="edgeStyle=orthogonalEdgeStyle;rounded=0;orthogonalLoop=1;jettySize=auto;html=1;exitX=0.5;exitY=0;exitDx=0;exitDy=0;exitPerimeter=0;entryX=0.5;entryY=1;entryDx=0;entryDy=0;entryPerimeter=0;" edge="1" parent="amxVWLV9TotgzXEuRiM_-1" source="amxVWLV9TotgzXEuRiM_-12" target="amxVWLV9TotgzXEuRiM_-7">
          <mxGeometry relative="1" as="geometry" />
        </mxCell>
        <mxCell id="amxVWLV9TotgzXEuRiM_-66" style="edgeStyle=orthogonalEdgeStyle;rounded=0;orthogonalLoop=1;jettySize=auto;html=1;exitX=0.5;exitY=1;exitDx=0;exitDy=0;exitPerimeter=0;entryX=0.5;entryY=0;entryDx=0;entryDy=0;entryPerimeter=0;" edge="1" parent="amxVWLV9TotgzXEuRiM_-1" source="amxVWLV9TotgzXEuRiM_-18" target="amxVWLV9TotgzXEuRiM_-17">
          <mxGeometry relative="1" as="geometry" />
        </mxCell>
        <mxCell id="amxVWLV9TotgzXEuRiM_-68" style="edgeStyle=orthogonalEdgeStyle;rounded=0;orthogonalLoop=1;jettySize=auto;html=1;exitX=1;exitY=0.5;exitDx=0;exitDy=0;exitPerimeter=0;entryX=0;entryY=0.5;entryDx=0;entryDy=0;entryPerimeter=0;" edge="1" parent="amxVWLV9TotgzXEuRiM_-1" source="amxVWLV9TotgzXEuRiM_-15" target="amxVWLV9TotgzXEuRiM_-25">
          <mxGeometry relative="1" as="geometry" />
        </mxCell>
        <mxCell id="amxVWLV9TotgzXEuRiM_-70" style="edgeStyle=orthogonalEdgeStyle;rounded=0;orthogonalLoop=1;jettySize=auto;html=1;exitX=0.5;exitY=0;exitDx=0;exitDy=0;exitPerimeter=0;entryX=0.5;entryY=1;entryDx=0;entryDy=0;entryPerimeter=0;" edge="1" parent="amxVWLV9TotgzXEuRiM_-1" source="amxVWLV9TotgzXEuRiM_-31" target="amxVWLV9TotgzXEuRiM_-29">
          <mxGeometry relative="1" as="geometry" />
        </mxCell>
        <mxCell id="amxVWLV9TotgzXEuRiM_-75" style="edgeStyle=orthogonalEdgeStyle;rounded=0;orthogonalLoop=1;jettySize=auto;html=1;exitX=0.5;exitY=1;exitDx=0;exitDy=0;exitPerimeter=0;" edge="1" parent="amxVWLV9TotgzXEuRiM_-1" source="amxVWLV9TotgzXEuRiM_-43" target="amxVWLV9TotgzXEuRiM_-22">
          <mxGeometry relative="1" as="geometry" />
        </mxCell>
      </root>
    </mxGraphModel>
  </diagram>
</mxfile>
